<?xml version="1.0" encoding="UTF-8"?> <svg xmlns="http://www.w3.org/2000/svg" width="576" height="232" viewBox="0 0 576 232" fill="none"> <rect width="4" height="232" fill="black"></rect> <rect x="76" width="4" height="232" fill="black"></rect> <rect x="168" width="4" height="232" fill="black"></rect> <rect x="256" width="4" height="232" fill="black"></rect> <rect x="332" width="4" height="232" fill="black"></rect> <rect x="424" width="4" height="232" fill="black"></rect> <rect x="512" width="4" height="232" fill="black"></rect> <rect x="12" width="8" height="232" fill="black"></rect> <rect x="104" width="8" height="232" fill="black"></rect> <rect x="268" width="8" height="232" fill="black"></rect> <rect x="360" width="8" height="232" fill="black"></rect> <rect x="524" width="8" height="232" fill="black"></rect> <rect x="24" width="12" height="232" fill="black"></rect> <rect x="84" width="12" height="232" fill="black"></rect> <rect x="116" width="12" height="232" fill="black"></rect> <rect x="176" width="12" height="232" fill="black"></rect> <rect x="280" width="12" height="232" fill="black"></rect> <rect x="372" width="12" height="232" fill="black"></rect> <rect x="432" width="12" height="232" fill="black"></rect> <rect x="536" width="12" height="232" fill="black"></rect> <rect x="340" width="12" height="232" fill="black"></rect> <rect x="40" width="24" height="232" fill="black"></rect> <rect x="132" width="24" height="232" fill="black"></rect> <rect x="196" width="24" height="232" fill="black"></rect> <rect x="296" width="24" height="232" fill="black"></rect> <rect x="388" width="24" height="232" fill="black"></rect> <rect x="452" width="24" height="232" fill="black"></rect> <rect x="552" width="24" height="232" fill="black"></rect> <rect x="484" width="24" height="232" fill="black"></rect> <rect x="228" width="24" height="232" fill="black"></rect> </svg> 